<?xml version="1.0" encoding="UTF-8" standalone="no"?>
<!DOCTYPE svg PUBLIC "-//W3C//DTD SVG 1.1//EN" "http://www.w3.org/Graphics/SVG/1.1/DTD/svg11.dtd">
<svg width="100%" height="100%" viewBox="0 0 56 204" version="1.1" xmlns="http://www.w3.org/2000/svg" xmlns:xlink="http://www.w3.org/1999/xlink" xml:space="preserve" xmlns:serif="http://www.serif.com/" style="fill-rule:evenodd;clip-rule:evenodd;stroke-linejoin:round;stroke-miterlimit:2;">
    <g id="g974" transform="matrix(0.309769,0,0,0.309769,-43.582,-23.8987)">
        <g id="Layer-1" serif:id="Layer 1">
            <g id="g9741" serif:id="g974">
                <path id="path980" d="M211.386,724.662L211.386,717.379L280.296,717.379L280.296,724.662L211.386,724.662ZM211.386,716.819L211.386,640.331L215.739,635.857L220.092,631.382L239.678,610.653L241.919,608.494L244.16,606.335L245.561,605.791L246.962,605.248L276.094,605.555L278.49,605.998L279.183,638.105L279.447,650.71L279.711,663.316L280.094,690.067L280.477,716.819L211.386,716.819ZM210.846,585.759L210.266,584.675L210.266,581.24L211.386,581.24L211.386,579.559L276.374,579.559L276.374,585.75L273.5,586.843L211.426,586.843L210.846,585.759ZM209.221,576.898L208.696,575.918L188.904,531.659L187.603,528.857L186.303,526.056L187.433,524.656L294.913,524.656L294.534,526.757L294.156,528.857L293.345,529.978L291.52,535.3L289.695,540.623L285.052,554.068L280.409,567.514L278.672,572.506L276.935,577.498L276.935,577.879L209.745,577.879L209.221,576.898ZM185.54,522.975L186.113,521.014L195.199,491.321L196.551,487.119L197.902,482.918L200.225,475.354L202.548,467.791L206.354,462.585L207.235,462.247L208.116,461.908L272.864,461.908L274.25,464.009L275.636,466.11L276.819,469.472L278.003,472.833L279.19,475.915L280.378,478.996L281.401,481.797L282.425,484.598L284.662,490.201L286.899,495.803L289.742,503.086L291.505,507.568L293.269,512.05L294.911,516.494L296.554,520.937L295.907,522.975L185.54,522.975ZM207.789,459.739L207.487,459.251L206.355,375.871L205.223,292.492L206.129,291.585L269.371,291.875L269.511,306.722L269.651,321.568L270.021,390.898L270.391,460.228L208.091,460.228L207.789,459.739ZM200.986,401.021L199.83,400.792L191.484,392.719L188.689,389.403L185.895,386.088L184.342,383.907L181.645,376.472L179.899,370.915L179.41,366.97L178.921,363.026L178.474,360.225L178.028,357.423L178.855,351.91L179.397,351.575L179.94,351.24L180.749,345.139L183.163,339.937L185.577,334.736L187.811,331.373L190.045,328.01L190.964,326.073L191.883,324.137L194.817,322.481L197.752,320.824L201.582,320.447L201.743,325.614L201.904,330.78L198.197,332.588L194.489,334.395L192.809,338.066L191.128,341.737L189.97,345.938L188.812,350.14L188.756,369.189L189.739,373.39L190.721,377.592L191.39,378.784L192.058,379.976L196.354,386.18L203.543,389.613L203.543,401.402L202.142,401.25L200.986,401.021L200.986,401.021ZM214.038,283.492L213.721,277.07L214.02,275.929L214.318,274.788L236.037,274.788L236.037,289.914L214.354,289.914L214.038,283.492ZM236.597,289.914L236.597,274.788L260.127,274.788L260.127,289.914L236.597,289.914ZM214.187,274.227L214.101,264.703L214.101,260.221L214.187,257.98L236.037,257.98L236.037,274.227L214.187,274.227ZM236.597,266.104L236.597,257.98L260.127,257.98L260.112,271.706L259.774,272.967L259.436,274.227L236.597,274.227L236.597,266.104L236.597,266.104ZM214.114,254.199L214.041,250.977L213.907,241.174L224.972,241.173L236.037,241.173L236.037,257.42L214.187,257.42L214.114,254.199ZM236.597,257.42L236.597,241.173L260.127,241.173L260.127,255.648L259.787,256.534L259.447,257.42L236.597,257.42ZM214.353,240.613L213.634,231.369L213.627,224.926L236.037,224.926L236.037,240.613L214.353,240.613ZM236.597,232.769L236.597,224.926L260.127,224.926L260.112,238.092L259.774,239.352L259.436,240.613L236.597,240.613L236.597,232.769L236.597,232.769ZM213.991,218.343L213.671,212.321L213.661,208.119L236.037,208.119L236.037,224.366L214.31,224.366L213.99,218.343L213.991,218.343ZM236.597,224.366L236.597,208.119L260.127,208.119L260.127,220.864L259.777,222.615L259.427,224.366L236.597,224.366ZM213.989,203.272L213.627,198.986L213.642,192.712L213.98,191.451L214.318,190.191L236.037,190.191L236.037,207.558L214.352,207.558L213.989,203.272L213.989,203.272ZM236.597,198.875L236.597,190.191L260.208,190.191L259.929,207.558L236.597,207.558L236.597,198.875ZM213.989,185.344L213.627,181.058L213.627,174.504L236.037,174.504L236.037,189.631L214.352,189.631L213.989,185.344ZM236.597,182.067L236.597,174.504L259.847,174.505L260.113,185.989L259.815,187.81L259.516,189.631L236.597,189.631L236.597,182.067ZM213.985,167.921L213.659,161.899L213.907,157.977L236.037,157.673L236.037,173.944L214.31,173.944L213.985,167.921ZM236.597,173.944L236.597,157.697L259.447,157.697L259.74,158.461L260.034,159.225L260.124,170.302L259.783,172.123L259.442,173.944L236.597,173.944ZM213.989,152.85L213.627,148.564L213.627,142.662L214.307,140.89L236.037,140.89L236.037,157.137L214.352,157.137L213.989,152.85ZM236.597,149.013L236.597,140.89L259.445,140.89L259.876,149.432L259.441,157.137L236.597,157.137L236.597,149.013ZM213.981,134.164L213.607,127.999L213.958,126.601L214.309,125.203L236.037,125.203L236.037,140.329L214.356,140.329L213.981,134.164ZM236.597,140.329L236.597,125.203L259.497,125.203L259.847,137.808L259.436,140.329L236.597,140.329ZM214.103,119.702L213.907,114.762L214.291,108.396L236.037,108.396L236.037,124.643L214.299,124.643L214.103,119.702ZM236.597,124.643L236.597,108.396L259.567,108.396L259.567,124.643L236.597,124.643ZM215.308,107.835L215.308,106.875L220.711,101.053L226.114,95.23L230.599,90.608L235.084,85.986L236.037,85.986L236.037,107.835L215.308,107.835ZM236.597,107.835L236.597,85.986L237.833,85.986L247.439,95.182L257.046,104.378L258.058,106.107L259.07,107.835L236.597,107.835Z" style="fill:rgb(254,254,254);fill-rule:nonzero;"/>
                <path id="path978" d="M161.685,674.289L158.765,673.96L163.366,669.116L167.967,664.272L193.207,637.743L218.446,611.213L222.34,607.011L226.233,602.809L209.351,602.501L207.012,600.118L204.673,597.734L208.17,593.969L211.667,590.204L277.775,590.33L280.665,593.488L283.555,596.646L281.72,598.825L279.886,601.003L277.15,601.453L274.413,601.902L243.797,601.969L241.102,604.63L238.407,607.291L220.93,625.779L203.453,644.267L195.795,652.327L188.136,660.387L181.133,667.599L174.13,674.812L164.606,674.618L161.685,674.289Z" style="fill:rgb(92,38,43);fill-rule:nonzero;"/>
                <path id="path976" d="M263.209,726.873L248.082,726.491L209.705,726.343L209.661,671.719L209.205,644.827L209.145,644.519L205.593,646.355L198.213,653.995L190.832,661.635L183.595,669.44L176.358,677.244L174.961,677.618L173.563,677.992L161.801,678.113L150.039,678.235L162.375,665.556L177.776,649.589L193.176,633.623L206.459,619.981L207.378,618.678L208.297,617.375L208.305,606.635L206.089,603.882L203.874,601.128L200.741,597.834L200.793,596.086L204.404,592.165L208.015,588.243L208.02,583.736L208.025,579.229L183.374,524.425L183.375,523.255L192.327,494.155L201.28,465.055L203.61,462.68L205.941,460.305L205.566,441.918L205.191,423.532L205.107,408.405L204.819,407.125L204.532,405.844L200.88,404.137L197.229,402.43L193.767,398.975L190.305,395.519L187.337,392.055L184.369,388.591L183.089,386.708L181.81,384.825L180.619,380.972L179.429,377.118L178.939,376.515L178.448,375.911L177.814,373.67L177.18,371.429L176.366,366.947L175.551,362.465L175.55,352.381L176.594,348.459L177.639,344.537L178.791,341.65L181.358,336.371L183.924,331.092L186.493,327.73L189.061,324.369L189.565,323.109L190.069,321.849L194.145,319.86L198.221,317.87L201.022,316.184L203.823,314.497L203.463,289.749L204.203,289.28L204.943,288.811L211.947,288.794L211.964,107.555L233.294,84.585L234.667,83.196L236.04,81.806L237.397,82.636L238.754,83.465L249.489,93.829L260.224,104.194L261.006,105.687L261.788,107.181L261.856,280.67L262.445,282.911L263.033,285.152L263.612,288.794L270.492,288.811L271.119,289.222L271.746,289.634L272.125,347.339L272.505,405.044L272.692,409.245L272.878,413.447L273.26,436.131L273.641,458.815L275.74,461.622L277.84,464.429L279.411,468.911L280.981,473.393L287.665,490.761L294.348,508.128L294.951,509.529L295.554,510.929L296.543,512.875L296.543,514.122L297.318,515.887L298.093,517.652L298.756,519.4L299.42,521.149L298.48,523.322L297.54,525.496L297.104,527.176L296.668,528.857L293.758,536.981L290.848,545.104L289.162,550.146L287.477,555.189L284.307,563.592L283.192,567.234L282.077,570.875L280.346,575.633L278.616,580.39L278.616,587.396L280.716,588.944L282.817,590.492L286.319,593.239L289.82,595.986L289.792,597.207L285.865,601.409L281.937,605.61L282.242,651.55L282.547,697.49L282.848,712.124L283.15,726.758L280.576,727.448L278.335,727.255L263.208,726.873L263.209,726.873ZM280.296,724.662L280.296,717.379L211.386,717.379L211.386,724.662L280.296,724.662ZM280.094,690.067L279.711,663.316L279.447,650.71L279.183,638.105L278.49,605.997L276.094,605.555L246.962,605.247L245.561,605.791L244.16,606.335L241.919,608.494L239.678,610.653L220.092,631.382L215.739,635.856L211.386,640.331L211.386,716.819L280.476,716.819L280.094,690.067ZM181.133,667.599L188.136,660.387L195.795,652.327L203.453,644.267L220.93,625.779L238.407,607.291L241.102,604.63L243.797,601.969L274.413,601.902L277.15,601.453L279.886,601.003L281.72,598.825L283.555,596.647L280.665,593.489L277.775,590.33L211.667,590.204L204.673,597.734L207.012,600.118L209.351,602.501L226.233,602.81L222.34,607.011L218.446,611.213L193.207,637.743L167.967,664.272L163.366,669.116L158.765,673.96L161.685,674.289L164.606,674.618L174.13,674.812L181.133,667.599ZM274.937,586.296L276.374,585.75L276.374,579.559L211.386,579.559L211.386,581.24L210.266,581.24L210.266,584.675L210.846,585.759L211.426,586.843L273.5,586.843L274.937,586.296ZM276.935,577.879L276.935,577.498L278.672,572.506L280.409,567.514L285.052,554.068L289.695,540.623L291.52,535.3L293.345,529.978L294.156,528.857L294.534,526.757L294.913,524.656L187.433,524.656L186.303,526.056L187.603,528.857L188.904,531.659L208.696,575.918L209.221,576.898L209.745,577.879L276.935,577.879ZM295.907,522.975L296.554,520.937L294.911,516.494L293.269,512.05L291.505,507.568L289.742,503.086L286.899,495.803L284.662,490.201L282.425,484.598L281.401,481.797L280.378,478.996L279.19,475.915L278.003,472.833L276.819,469.472L275.636,466.11L274.25,464.009L272.864,461.908L208.116,461.908L207.235,462.247L206.354,462.585L202.548,467.791L200.225,475.354L197.902,482.918L196.551,487.119L195.199,491.321L186.113,521.014L185.54,522.975L295.907,522.975ZM270.021,390.898L269.651,321.568L269.511,306.721L269.371,291.875L206.129,291.585L205.223,292.492L206.355,375.871L207.487,459.25L208.091,460.228L270.391,460.228L270.021,390.898ZM203.543,395.508L203.543,389.613L196.354,386.179L192.058,379.976L191.39,378.784L190.721,377.592L189.739,373.39L188.756,369.188L188.812,350.14L189.97,345.938L191.128,341.736L192.809,338.066L194.489,334.395L198.197,332.587L201.904,330.78L201.743,325.614L201.582,320.447L197.752,320.824L194.817,322.48L191.883,324.136L190.964,326.073L190.045,328.01L187.811,331.373L185.577,334.736L183.163,339.937L180.749,345.139L179.94,351.239L179.397,351.575L178.855,351.91L178.028,357.423L178.474,360.224L178.921,363.026L179.41,366.97L179.899,370.914L181.645,376.471L184.342,383.907L185.895,386.088L188.689,389.403L191.484,392.718L199.83,400.791L202.142,401.25L203.543,401.402L203.543,395.508ZM204.398,368.768L204.155,351.821L203.775,343.52L203.396,335.22L201.088,335.569L198.781,335.917L197.38,336.582L195.979,337.247L194.999,338.317L194.019,339.387L194.019,341.232L193.404,341.847L192.79,342.461L191.902,347.141L191.015,351.821L191.045,365.827L192.047,370.589L193.049,375.351L195.751,380.12L197.826,382.326L199.901,384.531L201.862,385.073L203.823,385.614L204.641,385.715L204.398,368.768L204.398,368.768ZM236.037,289.914L236.037,274.788L214.318,274.788L214.02,275.929L213.721,277.07L214.038,283.492L214.354,289.914L236.037,289.914ZM260.127,289.914L260.127,274.788L236.597,274.788L236.597,289.914L260.127,289.914ZM236.037,274.227L236.037,257.98L214.187,257.98L214.101,260.221L214.101,264.703L214.187,274.227L236.037,274.227ZM259.774,272.967L260.112,271.706L260.127,257.98L236.597,257.98L236.597,274.227L259.436,274.227L259.774,272.967ZM236.037,249.297L236.037,241.173L224.972,241.173L213.907,241.174L214.041,250.977L214.187,257.42L236.037,257.42L236.037,249.297ZM259.787,256.534L260.127,255.648L260.127,241.173L236.597,241.173L236.597,257.42L259.447,257.42L259.787,256.534ZM236.037,232.769L236.037,224.926L213.627,224.926L213.634,231.369L214.354,240.613L236.037,240.613L236.037,232.769L236.037,232.769ZM259.774,239.352L260.112,238.092L260.127,224.926L236.597,224.926L236.597,240.613L259.436,240.613L259.774,239.352ZM236.037,216.242L236.037,208.119L213.661,208.119L213.671,212.321L213.991,218.343L214.31,224.366L236.037,224.366L236.037,216.242L236.037,216.242ZM259.777,222.615L260.127,220.864L260.127,208.119L236.597,208.119L236.597,224.366L259.427,224.366L259.777,222.615ZM236.037,198.875L236.037,190.191L214.318,190.191L213.98,191.451L213.642,192.712L213.627,198.986L213.989,203.272L214.352,207.558L236.037,207.558L236.037,198.875L236.037,198.875ZM260.068,198.875L260.208,190.191L236.597,190.191L236.597,207.558L259.929,207.558L260.068,198.875ZM236.037,189.631L236.037,174.504L213.627,174.504L213.627,181.058L213.989,185.344L214.352,189.631L236.037,189.631ZM259.815,187.81L260.113,185.989L259.847,174.505L236.597,174.504L236.597,189.631L259.516,189.631L259.815,187.81ZM236.037,165.809L236.037,157.673L213.907,157.977L213.659,161.899L213.985,167.921L214.31,173.944L236.037,173.944L236.037,165.809ZM259.783,172.123L260.124,170.302L260.034,159.225L259.447,157.697L236.597,157.697L236.597,173.944L259.442,173.944L259.783,172.123ZM236.037,157.137L236.037,140.89L214.307,140.89L213.627,142.662L213.627,148.564L213.989,152.85L214.352,157.137L236.037,157.137ZM259.658,153.284L259.876,149.432L259.445,140.89L236.597,140.89L236.597,157.137L259.441,157.137L259.658,153.284ZM236.037,140.329L236.037,125.203L214.309,125.203L213.958,126.601L213.607,127.999L213.981,134.164L214.356,140.329L236.037,140.329ZM259.642,139.069L259.847,137.808L259.497,125.203L236.597,125.203L236.597,140.329L259.436,140.329L259.642,139.069ZM236.037,116.519L236.037,108.396L214.291,108.396L213.907,114.762L214.299,124.643L236.037,124.643L236.037,116.519ZM259.567,124.643L259.567,108.396L236.597,108.396L236.597,124.643L259.567,124.643ZM236.037,107.835L236.037,85.986L235.084,85.986L230.599,90.608L226.114,95.23L220.711,101.053L215.308,106.875L215.308,107.835L236.037,107.835ZM258.058,106.107L257.046,104.378L247.439,95.182L237.833,85.986L236.597,85.986L236.597,107.835L259.07,107.835L258.058,106.107Z" style="fill-rule:nonzero;"/>
            </g>
        </g>
    </g>
</svg>
