<?xml version="1.0" encoding="UTF-8" standalone="no"?>
<!-- Created with Inkscape (http://www.inkscape.org/) -->

<svg
   width="65.294632mm"
   height="241.08783mm"
   viewBox="0 0 65.294632 241.08783"
   version="1.1"
   id="svg5"
   xml:space="preserve"
   xmlns:inkscape="http://www.inkscape.org/namespaces/inkscape"
   xmlns:sodipodi="http://sodipodi.sourceforge.net/DTD/sodipodi-0.dtd"
   xmlns="http://www.w3.org/2000/svg"
   xmlns:svg="http://www.w3.org/2000/svg"><sodipodi:namedview
     id="namedview7"
     pagecolor="#ffffff"
     bordercolor="#000000"
     borderopacity="0.25"
     inkscape:showpageshadow="2"
     inkscape:pageopacity="0.0"
     inkscape:pagecheckerboard="0"
     inkscape:deskcolor="#d1d1d1"
     inkscape:document-units="mm"
     showgrid="false" /><defs
     id="defs2" /><g
     inkscape:label="Layer 1"
     inkscape:groupmode="layer"
     id="layer1"
     transform="translate(-126.27936,-19.545038)"><g
       id="g912"
       transform="translate(53.064001,-3.18384)"><path
         style="fill:transparent;stroke-width:0.200907"
         d="M 73.215363,143.2728 V 22.728878 h 32.647307 32.64732 V 143.2728 263.81672 H 105.86267 73.215363 Z m 50.386867,112.78035 0.4616,-0.12364 -0.10819,-5.24788 -0.10818,-5.24786 -0.10925,-16.47434 -0.10924,-16.47433 1.40836,-1.5068 1.40836,-1.5068 0.005,-0.21889 0.005,-0.2189 -1.25567,-0.98507 -1.25566,-0.98507 -0.7534,-0.55523 -0.7534,-0.55522 v -1.25606 -1.25606 l 0.62057,-1.70605 0.62058,-1.70606 0.39992,-1.30589 0.39992,-1.30589 0.56835,-1.5068 0.56835,-1.5068 0.60444,-1.80816 0.60444,-1.80816 1.04361,-2.91314 1.04362,-2.91315 0.15629,-0.60272 0.1563,-0.60272 0.33716,-0.77945 0.33715,-0.77945 -0.23804,-0.62689 -0.23805,-0.6269 -0.2778,-0.63308 -0.2778,-0.63308 v -0.2235 -0.2235 l -0.17747,-0.34886 -0.17747,-0.34886 -0.21618,-0.50226 -0.21618,-0.50227 -2.39664,-6.2281 -2.39664,-6.2281 -0.56335,-1.60726 -0.56334,-1.60725 -0.75041,-1.00453 -0.75041,-1.00453 -0.11677,-7.33309 -0.11677,-7.33309 -0.10219,-3.61632 -0.1022,-3.61632 -0.0953,-6.02719 -0.0953,-6.0272 -0.002,-13.40668 -0.002,-13.406685 -0.45204,-0.09176 -0.45204,-0.09176 -1.65748,-0.117677 -1.65748,-0.117677 v 0.306061 0.306061 H 111.94 108.07308 L 122.13636,85.210629 136.19892,71.146991 121.88461,56.832758 107.57038,42.518524 93.256147,56.832758 78.941914,71.146991 93.004476,85.210629 107.06704,99.274267 h -3.86692 -3.866907 v -0.289671 -0.289671 l -1.456573,0.101428 -1.456572,0.101427 -0.46578,0.09507 -0.46578,0.09507 0.06397,4.50105 0.06397,4.50105 -1.004533,0.60479 -1.004533,0.6048 -1.461667,0.71349 -1.461668,0.71349 -0.180679,0.45172 -0.180679,0.45172 -0.920989,1.20544 -0.92099,1.20544 -0.920463,1.89307 -0.920463,1.89308 -0.206617,0.5178 -0.206617,0.5178 -0.374498,1.40635 -0.374498,1.40635 2.61e-4,1.80815 2.61e-4,1.80816 0.292025,1.60726 0.292025,1.60725 0.227427,0.80362 0.227428,0.80363 0.175847,0.21647 0.175848,0.21646 0.426819,1.38188 0.426819,1.38188 0.458839,0.67525 0.458839,0.67524 1.064499,1.24227 1.064499,1.24228 1.241389,1.23906 1.241388,1.23907 1.30946,0.61222 1.309463,0.61222 0.103103,0.45914 0.103103,0.45914 0.01499,2.71224 0.01499,2.71224 0.134622,6.59354 0.134621,6.59354 -0.835849,0.85167 -0.83585,0.85166 -3.210348,10.43548 -3.210328,10.43547 -1.9e-4,0.20979 -1.9e-4,0.20978 4.419944,9.82666 4.419944,9.82666 -0.0018,1.61613 -0.0018,1.61614 -1.294836,1.40634 -1.294839,1.40635 -0.0093,0.31344 -0.0093,0.31345 0.561632,0.59063 0.561633,0.59064 0.794487,0.98727 0.794486,0.98727 -0.0014,1.92587 -0.0014,1.92588 -0.329425,0.46716 -0.329424,0.46717 -2.381685,2.44598 -2.381655,2.44598 -5.522692,5.72583 -5.522692,5.72584 -2.211892,2.27336 -2.211892,2.27335 4.217913,-0.0437 4.217914,-0.0437 0.501046,-0.13401 0.501047,-0.134 2.598914,-2.79885 2.598914,-2.79887 2.406412,-2.51133 2.406413,-2.51133 0.611206,-0.45204 0.611205,-0.45204 h 0.161875 0.161874 v 14.66465 14.66467 l 12.506429,0.0533 12.50643,0.0533 0.40181,0.046 0.40182,0.0459 z m -28.688961,-122.6543 -0.703173,-0.19419 -0.744222,-0.79101 -0.744223,-0.79101 -0.484479,-0.85507 -0.484478,-0.85506 -0.359297,-1.7077 -0.359296,-1.70771 -0.0054,-2.51133 -0.0054,-2.51133 0.318317,-1.67826 0.318318,-1.67825 0.220311,-0.22031 0.220311,-0.22031 v -0.3309 -0.33089 l 0.351587,-0.3837 0.351586,-0.3837 0.502267,-0.23837 0.502266,-0.23837 0.827492,-0.12505 0.82749,-0.12504 0.136092,2.97657 0.13609,2.97658 0.08724,6.07742 0.08725,6.07742 -0.146748,-0.0181 -0.146746,-0.0181 -0.703173,-0.19419 z M 111.99032,29.061089 v -0.0968 l -0.65661,-0.656601 -0.65661,-0.656601 -1.55396,-1.456572 -1.55397,-1.456573 h -0.26685 -0.26685 l -2.05882,2.209972 -2.05883,2.209972 h 4.53625 4.53625 z"
         id="path922" /><path
         style="fill:#fefefe;stroke-width:0.200907"
         d="m 104.97665,26.947915 2.05882,-2.209972 h 0.26685 0.26685 l 1.55397,1.456573 1.55396,1.456572 0.65661,0.656601 0.65661,0.656601 v 0.0968 0.0968 h -4.53625 -4.53625 z"
         id="path920" /><path
         style="fill:#fe0000;stroke-width:0.200907"
         d="m 98.298108,246.08672 -0.03057,-8.89012 -0.03269,-1.10498 -0.03269,-1.10499 -0.147919,-4.7213 -0.147918,-4.72131 0.185973,-0.27243 0.185973,-0.27243 1.58495,-1.63618 1.584943,-1.63618 3.51315,-3.71677 3.51315,-3.71677 0.89901,-0.85322 0.89902,-0.85322 0.65136,-0.1222 0.65136,-0.1222 5.3284,0.0791 5.32841,0.0791 0.17984,0.19313 0.17985,0.19313 0.12121,11.15031 0.12122,11.15032 0.13418,9.89464 0.13419,9.89465 H 110.71559 98.32868 Z m -0.163267,-40.7206 -0.207974,-0.3886 v -0.61593 -0.61593 h 0.200906 0.200907 v -0.30136 -0.30136 h 11.65258 11.65258 v 1.10996 1.10996 l -0.51535,0.19594 -0.51534,0.19593 H 109.47298 98.342818 Z m -0.582721,-3.17748 -0.18798,-0.35159 -3.54889,-7.93581 -3.548889,-7.9358 -0.466372,-1.00454 -0.466372,-1.00453 0.202641,-0.25113 0.202641,-0.25114 h 19.271531 19.27153 l -0.13575,0.7534 -0.13576,0.7534 -0.14548,0.20091 -0.14548,0.20091 -0.65433,1.90861 -0.65434,1.90861 -1.66502,4.82176 -1.66502,4.82175 -0.62302,1.79009 -0.62302,1.79008 v 0.0683 0.0683 H 109.78742 97.740098 Z m -8.389454,-19.68884 0.102765,-0.35159 1.629184,-5.32402 1.629185,-5.32402 0.484718,-1.5068 0.484719,-1.5068 0.832951,-2.71224 0.83295,-2.71224 0.682546,-0.93352 0.682546,-0.93352 0.315937,-0.12124 0.315936,-0.12124 H 108.76555 120.375 l 0.4971,0.7534 0.4971,0.7534 0.42428,1.20544 0.42428,1.20544 0.42587,1.10499 0.42587,1.10498 0.36713,1.00453 0.36712,1.00454 0.80209,2.00906 0.80209,2.00907 0.50977,1.30589 0.50977,1.30589 0.63242,1.60726 0.63243,1.60725 0.58906,1.59343 0.58906,1.59344 -0.11598,0.3654 -0.11597,0.36541 h -19.7893 -19.789288 z m 7.876005,-22.32516 -0.108284,-0.1752 -0.406015,-29.90033 -0.406014,-29.90032 0.16259,-0.16259 0.16259,-0.162592 11.339482,0.05192 11.33949,0.05192 0.0501,5.324022 0.0501,5.32403 0.13284,24.86218 0.13284,24.86218 H 108.31765 97.146954 Z m -2.439522,-21.05685 -0.414572,-0.0822 -1.496556,-1.4475 -1.496555,-1.44751 -1.002017,-1.18883 -1.002016,-1.18882 -0.278523,-0.39104 -0.278522,-0.39104 -0.48352,-1.33328 -0.483519,-1.33328 -0.312999,-0.9964 -0.312999,-0.99639 -0.175513,-1.41448 -0.175513,-1.41449 -0.159988,-1.00453 -0.159987,-1.00454 0.14818,-0.98853 0.148179,-0.98854 0.194521,-0.12022 0.194519,-0.12022 0.145114,-1.09392 0.145114,-1.09392 0.8657,-1.8652 0.8657,-1.86521 0.801028,-1.20597 0.801027,-1.20597 0.329595,-0.69457 0.329594,-0.69457 1.052304,-0.59388 1.052303,-0.59388 0.686795,-0.0676 0.686793,-0.0676 0.05769,1.85269 0.05769,1.85268 -1.329384,0.64819 -1.329387,0.64818 -0.602646,1.31636 -0.602646,1.31635 -0.415369,1.5068 -0.41537,1.5068 -0.01006,3.41541 -0.01006,3.41541 0.352449,1.5068 0.352449,1.5068 0.23962,0.42738 0.23962,0.42737 0.770379,1.11238 0.770378,1.11239 1.288914,0.61567 1.288913,0.61568 v 2.11383 2.11383 l -0.251133,-0.0274 -0.251133,-0.0274 -0.414573,-0.0822 z M 93.700241,84.978843 79.930555,71.147662 93.750468,57.327748 107.57038,43.507835 l 13.81976,13.81976 13.81976,13.819758 -13.86255,13.86255 -13.86255,13.862551 -0.007,-0.03122 -0.007,-0.03121 -13.769687,-13.831183 z"
         id="path918" /><path
         style="fill:#5c262b;stroke-width:0.200907"
         d="m 80.505642,237.11363 -1.047343,-0.11793 1.650062,-1.73712 1.650062,-1.7371 9.051066,-9.51367 9.051061,-9.51365 1.39608,-1.50679 1.39607,-1.5068 -3.02693,-0.0553 -3.026937,-0.0553 -0.838841,-0.85472 -0.838841,-0.85472 1.254191,-1.35022 1.254191,-1.35022 11.853287,0.0227 11.85328,0.0227 1.03634,1.13252 1.03635,1.13252 -0.65781,0.78116 -0.65781,0.78117 -0.98125,0.16116 -0.98125,0.16117 -5.48965,0.012 -5.48963,0.012 -0.96647,0.95431 -0.96648,0.9543 -6.26732,6.62992 -6.267331,6.62992 -2.746365,2.8903 -2.746365,2.89032 -2.511332,2.58639 -2.511332,2.58639 -1.707705,-0.0347 -1.707706,-0.0348 z"
         id="path916" /><path
         style="fill:#000000;stroke-width:0.200907"
         d="m 97.324147,241.31663 v -14.66762 h -0.161874 -0.161875 l -0.611205,0.45204 -0.611206,0.45204 -2.406413,2.51133 -2.406412,2.51133 -2.598914,2.79887 -2.598914,2.79885 -0.501047,0.134 -0.501046,0.13401 -4.217914,0.0437 -4.217913,0.0437 2.211892,-2.27335 2.211892,-2.27336 5.522692,-5.72584 5.522692,-5.72583 2.381685,-2.44598 2.381685,-2.44598 0.329424,-0.46717 0.329425,-0.46716 0.0014,-1.92588 0.0014,-1.92587 -0.794487,-0.98727 -0.794487,-0.98727 -0.561632,-0.59064 -0.561633,-0.59063 0.0093,-0.31345 0.0093,-0.31344 1.294839,-1.40635 1.294837,-1.40634 0.0018,-1.61614 0.0018,-1.61613 -4.419944,-9.82666 -4.419944,-9.82666 1.9e-4,-0.20978 1.9e-4,-0.20979 3.210328,-10.43547 3.210327,-10.43548 0.83585,-0.85166 0.835849,-0.85167 -0.134621,-6.59354 -0.134621,-6.59354 -0.01499,-2.71224 -0.01499,-2.71224 -0.103103,-0.45914 -0.103103,-0.45914 -1.309463,-0.61222 -1.30946,-0.61222 -1.241388,-1.23907 -1.241388,-1.23906 -1.064499,-1.24228 -1.0645,-1.24227 -0.458839,-0.67524 -0.458839,-0.67525 -0.426819,-1.38188 -0.426819,-1.38188 -0.175848,-0.21646 -0.175847,-0.21647 -0.227428,-0.80363 -0.227427,-0.80362 -0.292025,-1.60725 -0.292025,-1.60726 -2.61e-4,-1.80816 -2.61e-4,-1.80815 0.374498,-1.40635 0.374498,-1.40635 0.206617,-0.5178 0.206617,-0.5178 0.920463,-1.89308 0.920464,-1.89307 0.920989,-1.20544 0.920989,-1.20544 0.180679,-0.45172 0.180679,-0.45172 1.461668,-0.71349 1.461667,-0.71349 1.004533,-0.60479 1.004533,-0.6048 -0.06427,-4.40787 -0.06425,-4.407873 h 5.789576 5.78957 L 93.004476,85.210629 78.941914,71.146991 93.256147,56.832758 107.57038,42.518524 l 14.31423,14.314234 14.31424,14.314233 -14.06256,14.063638 -14.06257,14.063638 h 5.97643 5.97644 l 0.002,13.310063 0.002,13.31005 0.0953,6.0272 0.0953,6.02719 0.1022,3.61632 0.10219,3.61632 0.11677,7.33309 0.11677,7.33309 0.75041,1.00453 0.75041,1.00453 0.56334,1.60725 0.56335,1.60726 2.39664,6.2281 2.39664,6.2281 0.21618,0.50227 0.21618,0.50226 0.17747,0.34886 0.17746,0.34886 v 0.2235 0.2235 l 0.27781,0.63308 0.2778,0.63308 0.23805,0.6269 0.23804,0.62689 -0.33716,0.77945 -0.33715,0.77945 -0.1563,0.60272 -0.15629,0.60272 -1.04362,2.91315 -1.04361,2.91314 -0.60444,1.80816 -0.60444,1.80816 -0.56835,1.5068 -0.56835,1.5068 -0.39992,1.30589 -0.39992,1.30589 -0.62058,1.70606 -0.62057,1.70605 v 1.25606 1.25606 l 0.7534,0.55522 0.75339,0.55523 1.26308,0.99083 1.26309,0.99083 -0.0576,0.24184 -0.0576,0.24184 -1.30589,1.45398 -1.30589,1.45399 -0.10045,21.72202 -0.10046,21.72201 -13.10915,0.0517 -13.109151,0.0517 v -14.66765 z m 25.716033,-7.63589 v -21.29609 h -6.01411 -6.01412 l -0.46512,0.1801 -0.46512,0.18011 -0.80362,0.7742 -0.80363,0.7742 -3.51315,3.71677 -3.51315,3.71677 -1.596846,1.6483 -1.596847,1.64831 -0.158708,0.2836 -0.158708,0.28358 -0.05532,14.69316 -0.05532,14.69316 12.606889,-4e-5 12.60688,-4e-5 z m -35.560453,1.03392 2.511332,-2.58639 2.746365,-2.89032 2.746365,-2.8903 6.267331,-6.62992 6.26732,-6.62991 0.96648,-0.95431 0.96647,-0.9543 5.48963,-0.012 5.48965,-0.012 0.98125,-0.16117 0.98125,-0.16117 0.6533,-0.77816 0.6533,-0.77816 -1.03183,-1.14536 -1.03184,-1.14536 -11.85328,-0.0129 -11.853287,-0.0128 -1.254191,1.35022 -1.254191,1.35022 0.838841,0.85471 0.838841,0.85472 3.026937,0.0553 3.02693,0.0553 -1.39607,1.5068 -1.39608,1.50679 -9.051061,9.51365 -9.051066,9.51367 -1.650062,1.7371 -1.650062,1.73712 1.047343,0.11793 1.047342,0.11793 1.707706,0.0348 1.707705,0.0347 z m 33.638763,-29.15586 0.51535,-0.19594 v -1.10996 -1.10996 H 109.78035 97.926867 v 1.3059 1.30589 h 11.338143 11.33814 z m 0.71625,-3.08687 v -0.0683 l 0.62302,-1.79008 0.62302,-1.79009 1.66502,-4.82175 1.66502,-4.82176 0.65434,-1.90861 0.65433,-1.90861 0.14548,-0.20091 0.14548,-0.20091 0.13576,-0.7534 0.13575,-0.7534 H 109.01043 89.738899 l -0.202641,0.25114 -0.202641,0.25113 0.466372,1.00453 0.466372,1.00454 3.548889,7.9358 3.54889,7.93581 0.18798,0.35159 0.187978,0.35159 h 12.047322 12.04732 z m 6.91972,-19.98595 0.11598,-0.3654 -0.58906,-1.59344 -0.58906,-1.59343 -0.63243,-1.60725 -0.63242,-1.60726 -0.50977,-1.30589 -0.50977,-1.30589 -0.80209,-2.00907 -0.80209,-2.00906 -0.36712,-1.00454 -0.36713,-1.00453 -0.42587,-1.10498 -0.42587,-1.10499 -0.42428,-1.20544 -0.42428,-1.20544 -0.4971,-0.7534 -0.4971,-0.7534 H 108.76555 97.156103 l -0.315936,0.12124 -0.315937,0.12124 -0.682546,0.93352 -0.682546,0.93352 -0.83295,2.71224 -0.832951,2.71224 -0.484719,1.5068 -0.484718,1.5068 -1.629185,5.32402 -1.629184,5.32402 -0.102765,0.35159 -0.102764,0.35159 h 19.789288 19.7893 z m -9.39896,-46.99831 -0.13284,-24.86218 -0.0501,-5.32403 -0.0501,-5.32402 -11.33949,-0.05192 -11.339482,-0.05192 -0.16259,0.16259 -0.16259,0.16259 0.406014,29.90032 0.406015,29.90033 0.108284,0.1752 0.108283,0.17521 h 11.170696 11.17069 z m -23.839512,1.65317 v -2.11383 l -1.288913,-0.61568 -1.288914,-0.61567 -0.770378,-1.11239 -0.770379,-1.11238 -0.23962,-0.42737 -0.23962,-0.42738 -0.352449,-1.5068 -0.352449,-1.5068 0.01006,-3.41541 0.01006,-3.41541 0.41537,-1.5068 0.415369,-1.5068 0.602646,-1.31635 0.602646,-1.31636 1.329387,-0.64818 1.329384,-0.64819 -0.05769,-1.85268 -0.05769,-1.85269 -0.686793,0.0676 -0.686795,0.0676 -1.052303,0.59388 -1.052304,0.59388 -0.329594,0.69457 -0.329595,0.69457 -0.801027,1.20597 -0.801028,1.20597 -0.8657,1.86521 -0.8657,1.8652 -0.145114,1.09392 -0.145114,1.09392 -0.194519,0.12022 -0.194521,0.12022 -0.148179,0.98854 -0.14818,0.98853 0.159987,1.00454 0.159988,1.00453 0.175513,1.41449 0.175513,1.41448 0.312999,0.99639 0.312999,0.9964 0.483519,1.33328 0.48352,1.33328 0.278522,0.39104 0.278523,0.39104 1.002016,1.18882 1.002017,1.18883 1.496555,1.44751 1.496556,1.4475 0.414572,0.0822 0.414573,0.0822 0.251133,0.0274 0.251133,0.0274 z m 0.306702,-9.58898 -0.08724,-6.07742 -0.13609,-2.97658 -0.136092,-2.97657 -0.82749,0.12504 -0.827492,0.12505 -0.502266,0.23837 -0.502267,0.23837 -0.351586,0.3837 -0.351587,0.3837 v 0.33089 0.3309 l -0.220311,0.22031 -0.220311,0.22031 -0.318317,1.67825 -0.318317,1.67826 0.0054,2.51133 0.0054,2.51133 0.359297,1.70771 0.359296,1.7077 0.484479,0.85506 0.484478,0.85507 0.744223,0.79101 0.744222,0.79101 0.703173,0.19419 0.703173,0.19419 0.146746,0.0181 0.146748,0.0181 -0.08724,-6.07742 z M 121.77786,85.35483 135.6973,71.43539 V 71.147353 70.859315 L 121.77786,56.939875 107.85842,43.020438 h -0.28804 -0.28804 L 93.362903,56.939875 79.443466,70.859315 v 0.288038 0.288037 l 13.919437,13.91944 13.919437,13.919437 h 0.28804 0.28804 z"
         id="path914" /></g></g></svg>
