<?xml version="1.0" encoding="UTF-8" standalone="no"?>
<!DOCTYPE svg PUBLIC "-//W3C//DTD SVG 1.1//EN" "http://www.w3.org/Graphics/SVG/1.1/DTD/svg11.dtd">
<svg width="100%" height="100%" viewBox="0 0 63 130" version="1.1" xmlns="http://www.w3.org/2000/svg" xmlns:xlink="http://www.w3.org/1999/xlink" xml:space="preserve" xmlns:serif="http://www.serif.com/" style="fill-rule:evenodd;clip-rule:evenodd;stroke-linecap:round;stroke-linejoin:round;stroke-miterlimit:1.5;">
    <g id="Artboard2" transform="matrix(1,0,0,0.842815,0,0)">
        <rect x="0" y="0" width="63" height="154" style="fill:none;"/>
        <clipPath id="_clip1">
            <rect x="0" y="0" width="63" height="154"/>
        </clipPath>
        <g clip-path="url(#_clip1)">
            <g id="Artboard1" transform="matrix(1.01784,0,0,3.35076,0,0)">
                <rect x="0" y="0" width="60.96" height="54.48" style="fill:none;"/>
                <g>
                    <clipPath id="_clip2">
                        <rect x="0" y="0" width="60.96" height="54.48"/>
                    </clipPath>
                    <g clip-path="url(#_clip2)">
                        <g id="Layer2" transform="matrix(0.982467,0,0,0.326042,-0.251383,-5.722)">
                            <path d="M8.687,136.924L47.268,136.738L58.131,149.865L58.131,157.565L43.232,151.969L12.441,149.547L8.687,136.924Z" style="fill:rgb(124,39,0);stroke:rgb(0,2,3);stroke-opacity:0;stroke-width:1.04px;"/>
                            <g id="Layer3">
                                <path d="M8.762,136.885L47.316,136.885L58.189,149.846" style="fill:none;stroke:rgb(0,2,3);stroke-width:1.04px;"/>
                            </g>
                            <g transform="matrix(0.69197,0,0,0.722741,9.49263,36.0989)">
                                <g id="Layer1">
                                    <rect x="21.617" y="47.267" width="18.332" height="92.044" style="fill:white;stroke:black;stroke-width:1.23px;"/>
                                </g>
                            </g>
                        </g>
                        <g id="g585" transform="matrix(0.982477,0,0,0.354098,-289.795,-128.235)">
                            <g id="Layer-1" serif:id="Layer 1">
                                <g id="g5851" serif:id="g585">
                                    <path id="path593" d="M294.963,416.624L294.963,362.144L355.923,362.144L355.923,416.624L294.963,416.624ZM341.044,403.091C352.047,393.189 355.683,389.785 355.683,389.384C355.683,388.615 326.2,362.744 325.323,362.744C324.863,362.744 321.155,365.895 309.949,375.81C297.372,386.937 295.191,388.961 295.252,389.45C295.358,390.301 325.106,416.423 325.864,416.33C326.186,416.291 332.331,410.931 341.044,403.091Z" style="fill:none;fill-rule:nonzero;"/>
                                    <path id="path591" d="M310.919,401.2L297.476,389.381L310.919,377.48L324.363,365.579L324.425,377.421C324.46,383.935 324.46,394.609 324.425,401.141L324.363,413.018L310.919,401.2Z" style="fill:rgb(254,254,254);fill-rule:nonzero;"/>
                                    <path id="path589" d="M326.163,389.624L326.163,365.445L327.903,366.99C328.86,367.84 334.994,373.231 341.533,378.969L353.424,389.403L340.256,401.273C333.014,407.802 326.88,413.292 326.626,413.474C326.17,413.798 326.163,413.451 326.163,389.624Z" style="fill:rgb(253,0,18);fill-rule:nonzero;"/>
                                    <path id="path587" d="M310.323,403.21C299.349,393.562 295.304,389.87 295.252,389.45C295.191,388.961 297.372,386.937 309.949,375.81C321.155,365.895 324.863,362.744 325.323,362.744C326.2,362.744 355.683,388.615 355.683,389.384C355.683,389.785 352.047,393.189 341.044,403.091C332.331,410.931 326.186,416.291 325.864,416.33C325.448,416.381 321.852,413.344 310.323,403.21ZM340.256,401.273L353.424,389.403L341.533,378.969C334.994,373.231 328.86,367.84 327.903,366.99L326.163,365.445L326.163,389.624C326.163,413.451 326.169,413.798 326.626,413.474C326.88,413.292 333.014,407.802 340.256,401.273ZM324.426,377.421L324.363,365.579L310.92,377.48L297.476,389.381L310.92,401.2L324.363,413.018L324.426,401.141C324.46,394.609 324.46,383.935 324.426,377.421Z" style="fill-rule:nonzero;"/>
                                </g>
                            </g>
                        </g>
                    </g>
                </g>
            </g>
        </g>
    </g>
</svg>
