<?xml version="1.0" encoding="UTF-8" standalone="no"?>
<!DOCTYPE svg PUBLIC "-//W3C//DTD SVG 1.1//EN" "http://www.w3.org/Graphics/SVG/1.1/DTD/svg11.dtd">
<svg width="100%" height="100%" viewBox="0 0 63 123" version="1.1" xmlns="http://www.w3.org/2000/svg" xmlns:xlink="http://www.w3.org/1999/xlink" xml:space="preserve" xmlns:serif="http://www.serif.com/" style="fill-rule:evenodd;clip-rule:evenodd;stroke-linecap:round;stroke-linejoin:round;stroke-miterlimit:1.5;">
    <g id="Artboard2" transform="matrix(1,0,0,0.847511,0,0)">
        <rect x="0" y="0" width="63" height="145" style="fill:none;"/>
        <clipPath id="_clip1">
            <rect x="0" y="0" width="63" height="145"/>
        </clipPath>
        <g clip-path="url(#_clip1)">
            <g id="Artboard1" transform="matrix(0.0629409,0,0,0.249941,0,0)">
                <rect x="0" y="0" width="1000" height="682" style="fill:none;"/>
                <g id="Layer2" transform="matrix(15.8878,0,0,4.34676,7.83181,-112.472)">
                    <path d="M8.687,136.924L47.268,136.738L58.131,149.865L58.131,157.565L43.232,151.969L12.441,149.547L8.687,136.924Z" style="fill:rgb(124,39,0);stroke:rgb(0,2,3);stroke-opacity:0;stroke-width:1.04px;"/>
                    <g id="Layer3">
                        <path d="M8.762,136.885L47.316,136.885L58.189,149.846" style="fill:none;stroke:rgb(0,2,3);stroke-width:1.04px;"/>
                    </g>
                    <g transform="matrix(0.69197,0,0,0.722741,9.49263,36.0989)">
                        <g id="Layer1">
                            <rect x="21.617" y="47.267" width="18.332" height="92.044" style="fill:white;stroke:black;stroke-width:1.23px;"/>
                        </g>
                    </g>
                </g>
                <g transform="matrix(15.8879,0,0,4.72082,2446.74,-34.5596)">
                    <g transform="matrix(0.0906211,0,0,0.0608383,-153.479,8.21766)">
                        <rect x="85.579" y="81.082" width="527.183" height="525.438" style="fill:white;"/>
                    </g>
                    <g transform="matrix(0.0608383,0,0,0.0608383,-153.015,19.3298)">
                        <path d="M257.218,186.897L257.218,122.161L653.451,122.161L653.451,62.049L745.931,154.529L653.451,247.009L653.451,186.897L257.218,186.897Z"/>
                    </g>
                </g>
                <g transform="matrix(1.44046,0,0,0.287207,1.51985,4.23454)">
                    <path d="M17.25,670.55C16.45,670.35 15.05,669.8 14.2,669.35L12.65,668.55L11.8,666.8L11,665.05L11,339.85L10.95,14.65L11.45,13.4L11.9,12.15L15,9.55L17.4,9.15L19.75,8.75L673.75,8.75L678.75,11.25L680.25,15.25L680.25,664.75L679.25,666.75L678.25,668.7L676.5,669.75L674.75,670.75L346.75,670.8L18.75,670.9L17.25,670.55ZM670.95,665.75L673.75,663.65L675.25,659.75L675.25,18.25L673.55,15.15L670.25,13.75L22.25,13.75L18.35,15.25L17.4,16.5L16.5,17.75L16.5,659.45L17.1,662.45L18.3,663.55L19.45,664.65L22.1,665.3L24.75,665.9L347.85,665.85L670.95,665.75Z" style="fill:rgb(240,205,206);fill-rule:nonzero;"/>
                </g>
                <g transform="matrix(1.43593,0,0,0.287207,3.80236,4.23454)">
                    <path d="M20.6,666.8L17.95,666.15L16.8,665.05L15.6,663.95L15,660.85L15,16.25L15.9,15L16.85,13.75L20.75,12.25L671.75,12.25L675.05,13.65L676.75,16.75L676.75,661.25L675.25,665.15L672.45,667.25L347.85,667.35L23.25,667.4L20.6,666.8ZM594.25,592.9C596.3,591.8 597.8,590.1 598.75,587.9L599.5,586.05L599.5,96.75L599,94.8L598.55,92.85L597.65,91.6L596.7,90.35L594.75,89.55L592.75,88.75L97.75,88.45L95.9,89L94,89.55L92.65,91.9L91.25,94.25L91.25,586.75L92.4,589.25C93.05,590.6 94.05,592.25 94.6,592.85L95.7,594L344.2,593.9L592.75,593.75L594.25,592.9Z" style="fill:rgb(229,20,33);fill-rule:nonzero;"/>
                </g>
            </g>
        </g>
    </g>
</svg>
