<?xml version="1.0" encoding="UTF-8" standalone="no"?>
<!DOCTYPE svg PUBLIC "-//W3C//DTD SVG 1.1//EN" "http://www.w3.org/Graphics/SVG/1.1/DTD/svg11.dtd">
<svg width="100%" height="100%" viewBox="0 0 61 120" version="1.1" xmlns="http://www.w3.org/2000/svg" xmlns:xlink="http://www.w3.org/1999/xlink" xml:space="preserve" xmlns:serif="http://www.serif.com/" style="fill-rule:evenodd;clip-rule:evenodd;stroke-linecap:round;stroke-linejoin:round;stroke-miterlimit:1.5;">
    <g id="Artboard2" transform="matrix(1,0,0,0.836178,0,0)">
        <rect x="0" y="0" width="61" height="143" style="fill:none;"/>
        <g id="Artboard1" transform="matrix(0.0609395,0,0,0.249351,0,0)">
            <g>
                <clipPath id="_clip1">
                    <rect x="0" y="0" width="1000" height="682"/>
                </clipPath>
                <g clip-path="url(#_clip1)">
                    <g id="Layer2" transform="matrix(16.4096,0,0,4.4161,-7.81276,-132.739)">
                        <path d="M8.687,136.924L47.268,136.738L58.131,149.865L58.131,157.565L43.232,151.969L12.441,149.547L8.687,136.924Z" style="fill:rgb(124,39,0);stroke:rgb(0,2,3);stroke-opacity:0;stroke-width:1.04px;"/>
                        <g id="Layer3">
                            <path d="M8.762,136.885L47.316,136.885L58.189,149.846" style="fill:none;stroke:rgb(0,2,3);stroke-width:1.04px;"/>
                        </g>
                        <g transform="matrix(0.69197,0,0,0.722741,9.49263,36.0989)">
                            <g id="Layer1">
                                <rect x="21.617" y="47.267" width="18.332" height="92.044" style="fill:white;stroke:black;stroke-width:1.23px;"/>
                            </g>
                        </g>
                    </g>
                    <g transform="matrix(1.60359,0,0,0.424363,245.429,0.306023)">
                        <g transform="matrix(1.21704,0,0,0.62024,-153.991,0.0265832)">
                            <rect x="-0.081" y="0.07" width="509.622" height="226.124" style="fill:rgb(255,0,0);"/>
                        </g>
                        <g transform="matrix(1.21704,0,0,0.62024,-154.004,282.65)">
                            <rect x="-0.081" y="0.07" width="509.622" height="226.124" style="fill:rgb(255,0,0);"/>
                        </g>
                        <g transform="matrix(1.21704,0,0,0.628135,-153.675,140.502)">
                            <rect x="-0.081" y="0.07" width="509.622" height="226.124" style="fill:white;"/>
                        </g>
                    </g>
                </g>
            </g>
        </g>
    </g>
</svg>
