<?xml version="1.0" encoding="UTF-8" standalone="no"?>
<!DOCTYPE svg PUBLIC "-//W3C//DTD SVG 1.1//EN" "http://www.w3.org/Graphics/SVG/1.1/DTD/svg11.dtd">
<svg width="100%" height="100%" viewBox="0 0 768 768" version="1.1" xmlns="http://www.w3.org/2000/svg" xmlns:xlink="http://www.w3.org/1999/xlink" xml:space="preserve" xmlns:serif="http://www.serif.com/" style="fill-rule:evenodd;clip-rule:evenodd;stroke-miterlimit:1.5;">
    <g transform="matrix(0.884286,0,0,0.772184,39.4545,115.924)">
        <rect x="309.216" y="173.712" width="65.467" height="354.963" style="fill:none;"/>
        <clipPath id="_clip1">
            <rect x="309.216" y="173.712" width="65.467" height="354.963"/>
        </clipPath>
        <g clip-path="url(#_clip1)">
            <g transform="matrix(1.13086,0,0,1.29503,-44.6174,-150.124)">
                <rect x="314.61" y="252.904" width="56.343" height="270.32"/>
            </g>
            <g transform="matrix(1.40936,0,0,1.82411,-133.279,-285.177)">
                <rect x="317.488" y="254.693" width="39.348" height="21.428" style="fill:rgb(255,0,0);"/>
            </g>
            <g transform="matrix(1.40936,0,0,2.19003,-133.197,-335.435)">
                <rect x="317.488" y="254.693" width="39.348" height="21.428" style="fill:white;"/>
            </g>
            <g transform="matrix(1.40936,0,0,2.19003,-133.189,-284.824)">
                <rect x="317.488" y="254.693" width="39.348" height="21.428" style="fill:rgb(255,0,0);"/>
            </g>
            <g transform="matrix(1.40936,0,0,2.19003,-133.291,-234.041)">
                <rect x="317.488" y="254.693" width="39.348" height="21.428" style="fill:white;"/>
            </g>
            <g transform="matrix(1.40936,0,0,2.37711,-133.182,-231.162)">
                <rect x="317.488" y="254.693" width="39.348" height="21.428" style="fill:rgb(255,0,0);"/>
            </g>
            <g transform="matrix(1.40936,0,0,2.00552,-133.255,-81.699)">
                <rect x="317.488" y="254.693" width="39.348" height="21.428" style="fill:white;"/>
            </g>
            <g transform="matrix(1.40936,0,0,2.19765,-133.298,-83.8858)">
                <rect x="317.488" y="254.693" width="39.348" height="21.428" style="fill:rgb(255,0,0);"/>
            </g>
        </g>
        <rect x="309.216" y="173.712" width="65.467" height="354.963" style="fill:none;stroke:black;stroke-width:10.84px;"/>
    </g>
    <g transform="matrix(1.00874,0,0,1.01974,-2.99925,-4.05147)">
        <rect x="308.857" y="173.835" width="65.613" height="68.002"/>
    </g>
    <rect x="335.925" y="240.1" width="9.099" height="6.041"/>
    <g transform="matrix(1.22783,0,0,2.39259,-72.311,-427.043)">
        <rect x="317.488" y="254.693" width="39.348" height="21.428" style="fill:rgb(255,0,0);"/>
    </g>
</svg>
