<?xml version="1.0" encoding="UTF-8" standalone="no"?>
<!DOCTYPE svg PUBLIC "-//W3C//DTD SVG 1.1//EN" "http://www.w3.org/Graphics/SVG/1.1/DTD/svg11.dtd">
<svg width="100%" height="100%" viewBox="0 0 56 135" version="1.1" xmlns="http://www.w3.org/2000/svg" xmlns:xlink="http://www.w3.org/1999/xlink" xml:space="preserve" xmlns:serif="http://www.serif.com/" style="fill-rule:evenodd;clip-rule:evenodd;stroke-linecap:round;stroke-linejoin:round;stroke-miterlimit:1.5;">
    <g id="Artboard2" transform="matrix(1,0,0,0.842868,0,0)">
        <rect x="0" y="0" width="56" height="159" style="fill:none;"/>
        <clipPath id="_clip1">
            <rect x="0" y="0" width="56" height="159"/>
        </clipPath>
        <g clip-path="url(#_clip1)">
            <g id="Artboard1" transform="matrix(1.02257,0,0,3.08927,0,0)">
                <rect x="0" y="0" width="54.48" height="60.96" style="fill:none;"/>
                <g id="Layer2" transform="matrix(0.977923,0,0,0.353617,-3.70361,-4.5648)">
                    <path d="M8.687,136.924L47.268,136.738L58.131,149.865L58.131,157.565L43.232,151.969L12.441,149.547L8.687,136.924Z" style="fill:rgb(124,39,0);stroke:rgb(0,2,3);stroke-opacity:0;stroke-width:1.04px;"/>
                    <g id="Layer3">
                        <path d="M8.762,136.885L47.316,136.885L58.189,149.846" style="fill:none;stroke:rgb(0,2,3);stroke-width:1.04px;"/>
                    </g>
                    <g transform="matrix(0.69197,0,0,0.722741,9.49263,36.0989)">
                        <g id="Layer1">
                            <rect x="21.617" y="47.267" width="18.332" height="92.044" style="fill:white;stroke:black;stroke-width:1.23px;"/>
                        </g>
                    </g>
                </g>
                <g id="g318" transform="matrix(0.97793,0,0,0.384046,-237.91,-129.965)">
                    <g id="Layer-1" serif:id="Layer 1">
                        <g id="g3181" serif:id="g318">
                            <path id="path326" d="M243.28,399.37L243.28,338.41L297.76,338.41L297.76,399.37L243.28,399.37ZM284.106,384.253C293.979,373.001 297.16,369.229 297.16,368.77C297.16,367.9 271.289,338.65 270.519,338.65C269.755,338.65 243.64,368.373 243.64,369.242C243.64,370.105 269.744,399.13 270.52,399.13C270.924,399.13 274.204,395.538 284.106,384.253Z" style="fill:none;fill-rule:nonzero;"/>
                            <path id="path324" d="M247.28,367.39C247.547,367.093 252.886,361.017 259.145,353.887L270.526,340.924L279.523,351.087C284.471,356.677 289.849,362.754 291.473,364.59L294.426,367.93L246.796,367.93L247.28,367.39Z" style="fill:rgb(254,254,254);fill-rule:nonzero;"/>
                            <path id="path322" d="M270.504,396.872L246.073,369.73L258.255,369.668C264.954,369.634 275.814,369.634 282.386,369.668L294.336,369.73L270.504,396.872Z" style="fill:rgb(253,0,18);fill-rule:nonzero;"/>
                            <path id="path320" d="M256.813,384.487C246.801,373.358 243.64,369.7 243.64,369.242C243.64,368.373 269.755,338.65 270.519,338.65C271.289,338.65 297.16,367.9 297.16,368.77C297.16,369.647 271.289,399.13 270.52,399.13C270.119,399.13 266.716,395.495 256.813,384.487ZM282.386,369.668C275.814,369.634 264.954,369.634 258.255,369.668L246.073,369.73L270.504,396.872L294.336,369.73L282.386,369.668ZM291.473,364.59C289.849,362.754 284.471,356.677 279.523,351.087L270.526,340.924L259.145,353.887C252.886,361.017 247.547,367.093 247.28,367.39L246.796,367.93L294.426,367.93L291.473,364.59Z" style="fill-rule:nonzero;"/>
                        </g>
                    </g>
                </g>
            </g>
        </g>
    </g>
</svg>
