<?xml version="1.0" encoding="UTF-8" standalone="no"?>
<!DOCTYPE svg PUBLIC "-//W3C//DTD SVG 1.1//EN" "http://www.w3.org/Graphics/SVG/1.1/DTD/svg11.dtd">
<svg width="100%" height="100%" viewBox="0 0 62 131" version="1.1" xmlns="http://www.w3.org/2000/svg" xmlns:xlink="http://www.w3.org/1999/xlink" xml:space="preserve" xmlns:serif="http://www.serif.com/" style="fill-rule:evenodd;clip-rule:evenodd;stroke-linecap:round;stroke-linejoin:round;stroke-miterlimit:1.5;">
    <g id="Artboard2" transform="matrix(1,0,0,0.849414,0,0)">
        <rect x="0" y="0" width="62" height="154" style="fill:none;"/>
        <clipPath id="_clip1">
            <rect x="0" y="0" width="62" height="154"/>
        </clipPath>
        <g clip-path="url(#_clip1)">
            <g id="Artboard1" transform="matrix(1.00303,0,0,3.32177,0,0)">
                <rect x="0" y="0" width="60.96" height="54.48" style="fill:none;"/>
                <g>
                    <g id="Layer2" transform="matrix(0.996974,0,0,0.326332,-0.0984642,-5.6001)">
                        <path d="M8.687,136.924L47.268,136.738L58.131,149.865L58.131,157.565L43.232,151.969L12.441,149.547L8.687,136.924Z" style="fill:rgb(124,39,0);stroke:rgb(0,2,3);stroke-opacity:0;stroke-width:1.04px;"/>
                        <g id="Layer3">
                            <path d="M8.762,136.885L47.316,136.885L58.189,149.846" style="fill:none;stroke:rgb(0,2,3);stroke-width:1.04px;"/>
                        </g>
                        <g transform="matrix(0.69197,0,0,0.722741,9.49263,36.0989)">
                            <g id="Layer1">
                                <rect x="21.617" y="47.267" width="18.332" height="92.044" style="fill:white;stroke:black;stroke-width:1.23px;"/>
                            </g>
                        </g>
                    </g>
                    <g id="g528" transform="matrix(0.996981,0,0,0.354413,-335.754,-105.106)">
                        <g id="Layer-1" serif:id="Layer 1">
                            <g id="g5281" serif:id="g528">
                                <path id="path536" d="M336.771,351.044L336.771,296.564L397.731,296.564L397.731,351.044L336.771,351.044ZM382.852,337.51C393.855,327.608 397.491,324.204 397.491,323.804C397.491,323.034 368.008,297.164 367.131,297.164C366.671,297.164 362.963,300.315 351.756,310.229C339.179,321.356 336.998,323.38 337.059,323.869C337.165,324.72 366.914,350.842 367.672,350.75C367.994,350.711 374.139,345.351 382.852,337.51Z" style="fill:none;fill-rule:nonzero;"/>
                                <path id="path534" d="M367.971,324.044L367.971,299.865L369.711,301.41C370.668,302.26 376.801,307.65 383.341,313.389L395.231,323.822L382.063,335.693C374.821,342.222 368.688,347.712 368.433,347.893C367.978,348.218 367.971,347.87 367.971,324.044Z" style="fill:rgb(254,254,254);fill-rule:nonzero;"/>
                                <path id="path532" d="M366.171,347.438L339.283,323.8L366.171,299.998L366.233,311.841C366.268,318.354 366.268,329.028 366.233,335.561L366.171,347.438Z" style="fill:rgb(253,0,18);fill-rule:nonzero;"/>
                                <path id="path530" d="M352.131,337.629C341.156,327.982 337.112,324.289 337.059,323.869C336.998,323.38 339.179,321.356 351.756,310.229C362.963,300.315 366.671,297.164 367.131,297.164C368.008,297.164 397.491,323.034 397.491,323.804C397.491,324.204 393.855,327.608 382.852,337.51C374.139,345.351 367.994,350.71 367.672,350.75C367.256,350.8 363.659,347.764 352.131,337.629ZM382.063,335.693L395.231,323.822L383.341,313.389C376.801,307.65 370.668,302.26 369.711,301.41L367.971,299.865L367.971,324.044C367.971,347.87 367.977,348.218 368.433,347.893C368.688,347.712 374.821,342.222 382.063,335.693ZM366.233,311.841L366.171,299.998L339.283,323.8L366.171,347.438L366.233,335.561C366.267,329.028 366.267,318.354 366.233,311.841Z" style="fill-rule:nonzero;"/>
                            </g>
                        </g>
                    </g>
                </g>
            </g>
        </g>
    </g>
</svg>
