<?xml version="1.0" encoding="UTF-8" standalone="no"?>
<!DOCTYPE svg PUBLIC "-//W3C//DTD SVG 1.1//EN" "http://www.w3.org/Graphics/SVG/1.1/DTD/svg11.dtd">
<svg width="100%" height="100%" viewBox="0 0 56 135" version="1.1" xmlns="http://www.w3.org/2000/svg" xmlns:xlink="http://www.w3.org/1999/xlink" xml:space="preserve" xmlns:serif="http://www.serif.com/" style="fill-rule:evenodd;clip-rule:evenodd;stroke-linecap:round;stroke-linejoin:round;stroke-miterlimit:1.5;">
    <g id="Artboard2" transform="matrix(1,0,0,0.847613,0,0)">
        <rect x="0" y="0" width="56" height="159" style="fill:none;"/>
        <clipPath id="_clip1">
            <rect x="0" y="0" width="56" height="159"/>
        </clipPath>
        <g clip-path="url(#_clip1)">
            <g id="Artboard1" transform="matrix(1.0213,0,0,3.0748,0,0)">
                <rect x="0" y="0" width="54.48" height="60.96" style="fill:none;"/>
                <g>
                    <clipPath id="_clip2">
                        <rect x="0" y="0" width="54.48" height="60.96"/>
                    </clipPath>
                    <g clip-path="url(#_clip2)">
                        <g id="Layer2" transform="matrix(0.979139,0,0,0.353293,-3.70821,-4.56061)">
                            <path d="M8.687,136.924L47.268,136.738L58.131,149.865L58.131,157.565L43.232,151.969L12.441,149.547L8.687,136.924Z" style="fill:rgb(124,39,0);stroke:rgb(0,2,3);stroke-opacity:0;stroke-width:1.04px;"/>
                            <g id="Layer3">
                                <path d="M8.762,136.885L47.316,136.885L58.189,149.846" style="fill:none;stroke:rgb(0,2,3);stroke-width:1.04px;"/>
                            </g>
                            <g transform="matrix(0.69197,0,0,0.722741,9.49263,36.0989)">
                                <g id="Layer1">
                                    <rect x="21.617" y="47.267" width="18.332" height="92.044" style="fill:white;stroke:black;stroke-width:1.23px;"/>
                                </g>
                            </g>
                        </g>
                        <g id="g473" transform="matrix(0.979139,0,0,0.383694,-258.271,-101.538)">
                            <g id="Layer-1" serif:id="Layer 1">
                                <g id="g4731" serif:id="g473">
                                    <path id="path481" d="M263.774,325.592L263.774,264.632L318.254,264.632L318.254,325.592L263.774,325.592ZM304.6,310.475C314.473,299.223 317.654,295.451 317.654,294.992C317.654,294.122 291.783,264.872 291.013,264.872C290.249,264.872 264.134,294.594 264.134,295.464C264.134,296.327 290.238,325.352 291.014,325.352C291.418,325.352 294.698,321.76 304.6,310.475Z" style="fill:none;fill-rule:nonzero;"/>
                                    <path id="path479" d="M278.782,309.523L266.567,295.952L278.748,295.89C285.448,295.856 296.308,295.856 302.88,295.89L314.83,295.952L290.998,323.094L278.782,309.523Z" style="fill:rgb(254,254,254);fill-rule:nonzero;"/>
                                    <path id="path477" d="M267.774,293.612C268.041,293.315 273.38,287.239 279.639,280.109L291.02,267.146L300.017,277.309C304.965,282.899 310.343,288.976 311.967,290.812L314.92,294.152L267.29,294.152L267.774,293.612Z" style="fill:rgb(253,0,18);fill-rule:nonzero;"/>
                                    <path id="path475" d="M277.307,310.709C267.295,299.58 264.134,295.922 264.134,295.464C264.134,294.594 290.249,264.872 291.013,264.872C291.783,264.872 317.654,294.122 317.654,294.992C317.654,295.869 291.783,325.352 291.014,325.352C290.613,325.352 287.21,321.717 277.307,310.709ZM302.88,295.89C296.308,295.856 285.448,295.856 278.748,295.89L266.567,295.952L278.782,309.523L290.998,323.094L314.83,295.952L302.88,295.89ZM311.967,290.812C310.343,288.976 304.965,282.899 300.017,277.309L291.02,267.146L279.639,280.109C273.38,287.239 268.041,293.315 267.774,293.612L267.29,294.152L314.92,294.152L311.967,290.812Z" style="fill-rule:nonzero;"/>
                                </g>
                            </g>
                        </g>
                    </g>
                </g>
            </g>
        </g>
    </g>
</svg>
